# xmcd
#
# Track frame offsets: 
#        151
#        23039
#        42645
#        60375
#        74509
#        92082
#        110732
#        130611
#        147707
#        169182
#        185309
#        207623
#        223215
#        234760
#
# Disc length: 3341 seconds
#
# Revision: 0
# Processed by: cddbd v1.5.2PL0 Copyright (c) Steve Scherf et al.
# Submitted via: ExactAudioCopy v0.99pb5
#
DISCID=d60d0b0e
DTITLE=Justyna i Piotr - Ciao Italia vol. 2
DYEAR=1900
DGENRE=Pop
TTITLE0=Tesknota
TTITLE1=Ciao Amore
TTITLE2=Dziekuje Ci Kochanie
TTITLE3=Dlaczego W³asnie Ty?
TTITLE4=Noc Bez Anio³a
TTITLE5=Zloty Deszcz
TTITLE6=Prawo Milosci
TTITLE7=Arivederci Salsa
TTITLE8=Odnajde Cie
TTITLE9=Tyle Milosci Mam Dla Ciebie
TTITLE10=Zegnaj
TTITLE11=Pójdê Za Tob¹
TTITLE12=Bongiorno
TTITLE13=Jest Takie Miejsce
EXTD=
EXTT0=
EXTT1=
EXTT2=
EXTT3=
EXTT4=
EXTT5=
EXTT6=
EXTT7=
EXTT8=
EXTT9=
EXTT10=
EXTT11=
EXTT12=
EXTT13=
PLAYORDER=
